<?xml version="1.0" encoding="UTF-8"?> <!-- Generator: Adobe Illustrator 25.1.0, SVG Export Plug-In . SVG Version: 6.00 Build 0) --> <svg xmlns="http://www.w3.org/2000/svg" xmlns:xlink="http://www.w3.org/1999/xlink" version="1.1" id="Layer_1" x="0px" y="0px" viewBox="0 0 610 120" style="enable-background:new 0 0 610 120;" xml:space="preserve"> <style type="text/css"> .st0{fill:#373A36;} </style> <g> <g> <g> <g> <path class="st0" d="M38.5,115.5c-0.2,0-0.4-0.1-0.5-0.3L2.2,64.5c-0.1-0.2-0.1-0.4-0.1-0.6l26-56.5c0.1-0.2,0.3-0.3,0.5-0.3 l61.8-5.7c0.2,0,0.4,0.1,0.5,0.3l35.8,50.7c0.1,0.2,0.1,0.4,0.1,0.6l-26,56.5c-0.1,0.2-0.3,0.3-0.5,0.3L38.5,115.5 C38.6,115.5,38.5,115.5,38.5,115.5z M3.4,64.1l35.4,50.2l61.1-5.7l25.7-55.8L90.1,2.6L29,8.3L3.4,64.1z M100.3,109.2 L100.3,109.2L100.3,109.2z"></path> <path class="st0" d="M38.3,115.4l-9.9-51.6V7.3l48.3,14.2l50.1,31.2l-37.3,33L38.3,115.4z M28.9,8.1v55.6l9.8,50.8l50.5-29.2 l36.6-32.5L76.4,22.1L28.9,8.1z"></path> <g> <ellipse class="st0" cx="77.4" cy="22.1" rx="1.8" ry="1.8"></ellipse> <path class="st0" d="M77.4,25.8c-2,0-3.7-1.7-3.7-3.7s1.7-3.7,3.7-3.7s3.7,1.7,3.7,3.7C81.2,24.2,79.5,25.8,77.4,25.8z M77.4,22l-0.1,0.1c0,0.1,0.1,0.1,0.1,0.1V22z"></path> </g> <g> <ellipse class="st0" cx="89.5" cy="85.5" rx="1.8" ry="1.8"></ellipse> <path class="st0" d="M89.5,89.2c-2,0-3.7-1.7-3.7-3.7s1.7-3.7,3.7-3.7s3.7,1.7,3.7,3.7C93.2,87.5,91.5,89.2,89.5,89.2z M89.5,85.4L89.5,85.4c-0.1,0.2-0.1,0.2,0,0.2V85.4z"></path> </g> <g> <ellipse class="st0" cx="39" cy="114.9" rx="1.8" ry="1.8"></ellipse> <path class="st0" d="M39,118.7c-2,0-3.7-1.7-3.7-3.7s1.7-3.7,3.7-3.7s3.7,1.7,3.7,3.7S41,118.7,39,118.7z M39,114.8L39,114.8 c-0.1,0.2-0.1,0.2,0,0.2V114.8z"></path> </g> <g> <ellipse class="st0" cx="28.6" cy="64.2" rx="1.8" ry="1.8"></ellipse> <path class="st0" d="M28.6,68c-2,0-3.7-1.7-3.7-3.7c0-2,1.7-3.7,3.7-3.7s3.7,1.7,3.7,3.7C32.3,66.4,30.7,68,28.6,68z M28.6,64.2l-0.1,0.1c0,0.1,0.1,0.1,0.1,0.1V64.2z"></path> </g> <g> <ellipse class="st0" cx="126.3" cy="52.8" rx="1.8" ry="1.8"></ellipse> <path class="st0" d="M126.3,56.5c-2,0-3.7-1.7-3.7-3.7s1.7-3.7,3.7-3.7c2,0,3.7,1.7,3.7,3.7S128.3,56.5,126.3,56.5z M126.3,52.6L126.3,52.6c-0.1,0.2-0.1,0.2,0,0.2V52.6z"></path> </g> <g> <ellipse class="st0" cx="28.6" cy="7.7" rx="1.8" ry="1.8"></ellipse> <path class="st0" d="M28.6,11.4c-2,0-3.7-1.7-3.7-3.7S26.6,4,28.6,4s3.7,1.7,3.7,3.7C32.3,9.8,30.7,11.4,28.6,11.4z M28.6,7.6 l-0.1,0.1c0,0.1,0.1,0.1,0.1,0.1V7.6z"></path> </g> <path class="st0" d="M100.3,109.8c-0.1,0-0.1,0-0.2,0L53,93.2L2.4,64.7c-0.2-0.1-0.3-0.3-0.3-0.5c0-0.2,0-0.4,0.2-0.5l38.1-34.8 L90.1,1.5c0.2-0.1,0.4-0.1,0.5,0c0.2,0.1,0.3,0.2,0.3,0.4l11.2,49l-1.3,58.3c0,0.2-0.1,0.4-0.3,0.5 C100.5,109.8,100.4,109.8,100.3,109.8z M3.7,64.1l49.8,28l46.2,16.3l1.3-57.3L90,3L41,29.9L3.7,64.1z"></path> <path class="st0" d="M89.7,85.7l-0.3-0.1L28.3,64.4l0.2-0.2l49-42.4L89.7,85.7z M28.9,64.2l60.3,21L77.3,22.4L28.9,64.2z"></path> <path class="st0" d="M52.8,93.7L40,28.4l62.8,22.5L52.8,93.7z M41.5,30.1l12,61.2l46.9-40.1L41.5,30.1z"></path> <rect x="34.1" y="6.1" transform="matrix(0.8718 -0.4898 0.4898 0.8718 -4.5666 19.3623)" class="st0" width="1.2" height="24.7"></rect> <polygon class="st0" points="39.5,115.2 38.5,114.6 52.7,92.2 53.7,92.9 "></polygon> <rect x="113.4" y="39.6" transform="matrix(7.286207e-02 -0.9973 0.9973 7.286207e-02 53.8627 161.8031)" class="st0" width="1.2" height="24.7"></rect> </g> <g> <g> <path class="st0" d="M154.3,38.3l9.9-0.1l0.1,16.8l19.3-0.1l-0.1-16.8l9.9-0.1l0.2,45.1l-9.9,0.1l-0.1-19.5l-19.2,0.1l0.1,19.5 l-9.9,0.1L154.3,38.3z"></path> <path class="st0" d="M213.3,63.9l-17.1-25.7l12.4-0.1l9.6,16.8l10-16.9l11.8-0.1l-16.8,25.9l0.1,19.2l-9.9,0.1L213.3,63.9z"></path> <path class="st0" d="M242.7,37.8l16.8-0.1c2.3,0,4.5,0.2,6.6,0.6c2.1,0.4,3.9,1.1,5.5,2.2c1.6,1,2.8,2.4,3.7,4.2 c0.9,1.8,1.4,4,1.4,6.6s-0.4,4.8-1.2,6.6c-0.8,1.8-2,3.2-3.5,4.3s-3.2,1.8-5.3,2.3c-2,0.5-4.2,0.7-6.6,0.7h-7.3l0.1,17.6 l-9.9,0.1L242.7,37.8z M252.7,57h6.6c0.9,0,1.7-0.1,2.6-0.3c0.8-0.2,1.6-0.5,2.2-0.9c0.7-0.4,1.2-1,1.6-1.7s0.6-1.6,0.6-2.6 c0-1.1-0.3-2.1-0.8-2.8s-1.2-1.2-2-1.6c-0.8-0.4-1.8-0.6-2.8-0.7c-1-0.1-2-0.1-2.9-0.1h-5.1L252.7,57z"></path> <path class="st0" d="M282.5,37.6l30.6-0.2v9.2l-20.7,0.1v8.4L312,55v9.2l-19.6,0.1v9.2l21.8-0.1v9.2l-31.8,0.2L282.5,37.6z"></path> <path class="st0" d="M321.6,37.5l17.5-0.1c2.3,0,4.5,0.2,6.5,0.6c2.1,0.4,3.9,1.2,5.4,2.2c1.6,1,2.8,2.4,3.7,4.2 c0.9,1.8,1.4,4,1.4,6.6c0,3.2-0.8,5.9-2.4,8.1c-1.6,2.2-4.1,3.7-7.2,4.3l11.6,19l-11.9,0.1l-9.5-18h-4.9l0.1,18l-9.9,0.1 L321.6,37.5z M331.7,56h5.9c0.9,0,1.8,0,2.8-0.1s1.9-0.3,2.7-0.6c0.8-0.3,1.5-0.8,2-1.5s0.8-1.6,0.8-2.9c0-1.1-0.2-2.1-0.7-2.7 c-0.5-0.7-1.1-1.2-1.8-1.5c-0.7-0.4-1.6-0.6-2.5-0.7c-0.9-0.1-1.8-0.2-2.7-0.2h-6.5L331.7,56z"></path> <path class="st0" d="M362.7,37.2l9.9-0.1l0.2,35.9l18.4-0.1v9.2l-28.3,0.1L362.7,37.2z"></path> <path class="st0" d="M396.2,37l30.6-0.2V46l-20.7,0.1v8.4l19.6-0.1v9.2l-19.6,0.1v9.2l21.8-0.1V82l-31.8,0.2L396.2,37z"></path> <path class="st0" d="M435.3,36.8l14.9-0.1c3.6,0,7,0.4,10.3,1.2c3.2,0.8,6.1,2.1,8.5,3.9c2.4,1.8,4.4,4.1,5.8,7 s2.2,6.4,2.2,10.5c0,3.6-0.7,6.9-2,9.7c-1.4,2.8-3.2,5.1-5.5,7s-5,3.3-8.1,4.3s-6.3,1.5-9.6,1.5L435.6,82L435.3,36.8z M445.4,72.8h5.2c2.3,0,4.4-0.3,6.4-0.7c2-0.5,3.7-1.3,5.1-2.4s2.6-2.5,3.4-4.3c0.8-1.8,1.2-3.9,1.2-6.5c0-2.2-0.4-4.1-1.3-5.8 c-0.8-1.6-2-3-3.4-4c-1.4-1.1-3.1-1.8-4.9-2.4c-1.9-0.5-3.9-0.8-6-0.8h-5.9L445.4,72.8z"></path> <path class="st0" d="M524.2,78.2c-2.9,1.5-6,2.7-9.2,3.4c-3.2,0.7-6.4,1.1-9.7,1.1c-3.5,0-6.8-0.5-9.8-1.6s-5.6-2.7-7.7-4.7 c-2.2-2-3.9-4.5-5.1-7.4s-1.8-6.2-1.9-9.8c0-3.6,0.6-6.9,1.8-9.8c1.2-2.9,2.9-5.4,5-7.5c2.2-2.1,4.7-3.7,7.7-4.8 s6.2-1.7,9.7-1.7c3.6,0,6.9,0.4,10,1.2c3,0.9,5.7,2.3,8,4.4l-7,7.7c-1.4-1.4-2.9-2.4-4.6-3.2c-1.7-0.7-3.8-1.1-6.4-1 c-2.1,0-4,0.4-5.8,1.1c-1.7,0.7-3.2,1.7-4.4,3c-1.2,1.3-2.2,2.8-2.8,4.6c-0.6,1.8-1,3.7-1,5.8s0.3,4.1,1,5.8 c0.7,1.8,1.6,3.3,2.9,4.6c1.2,1.3,2.7,2.3,4.4,3c1.7,0.7,3.6,1.1,5.8,1.1c2.2,0,4-0.3,5.6-0.8s2.8-1,3.7-1.5v-7.3h-8.1v-9.2 l17.6-0.1L524.2,78.2z"></path> <path class="st0" d="M532.4,36.3l30.6-0.2v9.2l-20.7,0.1v8.4l19.6-0.1v9.2L542.5,63v9.2l21.8-0.1v9.2l-31.8,0.2L532.4,36.3z"></path> <path class="st0" d="M571.5,36.1l17.4-0.1c2.3,0,4.5,0.2,6.5,0.6c2.1,0.4,3.9,1.2,5.4,2.2c1.6,1,2.8,2.4,3.7,4.2s1.4,4,1.4,6.6 c0,3.2-0.8,5.9-2.4,8.1c-1.6,2.2-4.1,3.7-7.2,4.3l11.6,19L596,81.2l-9.5-18h-4.9l0.1,18l-9.9,0.1L571.5,36.1z M581.5,54.8h5.9 c0.9,0,1.8,0,2.8-0.1s1.9-0.3,2.7-0.6s1.5-0.8,2-1.5s0.8-1.6,0.8-2.9c0-1.1-0.2-2.1-0.7-2.7c-0.5-0.7-1.1-1.2-1.8-1.5 c-0.7-0.4-1.6-0.6-2.5-0.7c-0.9-0.1-1.8-0.2-2.7-0.2h-6.5V54.8z"></path> </g> </g> </g> </g> </g> </svg> 