<svg width="38" height="24" xmlns="http://www.w3.org/2000/svg">

 <g>
  <title>background</title>
  <rect fill="none" id="canvas_background" height="26" width="40" y="-1" x="-1"/>
 </g>
 <g>
  <title>Layer 1</title>
  <path id="svg_1" fill="#1A5A96" d="m31.50129,23.45304c3.34754,0 6.06121,-2.71374 6.06121,-6.06128c0,-2.87559 -2.00321,-5.28179 -4.68981,-5.90348c-0.05495,-6.08439 -5.00344,-11.00002 -11.10082,-11.00002c-4.18616,0 -7.83053,2.31721 -9.72209,5.73863c-0.57554,-0.24907 -1.20992,-0.38773 -1.87688,-0.38773c-2.40268,0 -4.38564,1.79163 -4.68922,4.11148c-3.12642,0.61993 -5.48369,3.3771 -5.48369,6.68554c0,3.76491 3.05203,6.81686 6.81679,6.81686c1.04867,0 23.96605,0 24.68451,0z"/>
 </g>
</svg>
